<svg xmlns="http://www.w3.org/2000/svg" width="1033.898" height="299.26" viewBox="0 0 1033.898 299.26">
  <g id="Group_44844" data-name="Group 44844" transform="translate(-63.052 -331.676)">
    <path id="Path_2630" data-name="Path 2630" d="M12.964-192.262H59.813L87.767-28.188h.39L116.3-192.262h45.68v8.827H142.6V31h19.383V39.83H100.526V31h19.967V-187.416h-.39L81.241,39.83h-4.48L37.9-187.416h-.39V31H57.476V39.83H12.964V31H32.541V-183.435H12.964ZM255.879-32.515H214.387L201.043,31H225.2V39.83H177.862V31h18.019l47.628-228.63h3.019L292.209,31h17.532V39.83H247.5V31h21.136Zm-39.642-8.827h37.888l-18.409-92.941h-.39ZM342.857,31V-183.435H322.5v-8.827h61.654q20.454,0,35.015,10.3t24.3,40.326q9.74,30.028,9.74,65.162,0,37.211-10.714,66.46T417.806,29.532q-13.977,10.3-34.041,10.3H322.5V31Zm23.181-214.438V31h16.948q13.344,0,21.769-4.327T418.682,7.812q5.5-14.538,7.451-36.865t1.948-58.326q0-43.268-6.185-64.557t-15.146-26.394q-8.961-5.106-23.376-5.106ZM535.708,45.2q-25.324,0-43-37.73a187.743,187.743,0,0,1-17.678-80.652q0-51.576,18.555-88.008t43.1-36.432q23.084,0,41.395,37.038t18.311,84.114q0,48.461-18.36,85.066T535.708,45.2Zm.39-234q-10.714,0-19.236,8.74t-11.591,30.374q-3.068,21.634-3.068,75.46,0,37.211,1.753,59.364t8.912,36.692q7.159,14.538,22.451,14.538,9.35,0,18.749-8.827t12.272-34.7q2.873-25.875,2.873-79.527,0-48.634-3.555-67.153t-11.4-26.74Q546.422-188.8,536.1-188.8Zm194.312,5.365V45.2h-3.993l-86-229.669h-.39V31h22.11V39.83h-46.46V31h19.383V-183.435H614.31v-8.827h49.869L725.053-29.572h.39V-183.435H703.82v-8.827h46.362v8.827Zm151.554,0V45.2h-3.994l-86-229.669h-.39V31h22.11V39.83h-46.46V31H786.61V-183.435H765.864v-8.827h49.869L876.607-29.572H877V-183.435H855.374v-8.827h46.362v8.827ZM993-32.515H951.508L938.164,31h24.155V39.83H914.983V31H933l47.629-228.63h3.019L1029.33,31h17.532V39.83H984.624V31h21.136Zm-39.642-8.827h37.888l-18.409-92.941h-.39Z" transform="translate(50.089 585.74)" fill="#caad68"/>
    <path id="Path_8345" data-name="Path 8345" d="M18.72,0h2.444V-9.828h4.628v-2.236H21.216V-37.648h-3.38L.988-11.752v1.924H18.72Zm.052-12.064H4L18.772-35.2ZM41.236.624c10.088,0,11.8-9.412,11.8-20.02,0-9.256-1.2-18.928-11.284-18.928-10.192,0-12.116,9.672-12.116,19.708C29.64-8.632,31.044.624,41.236.624Zm.156-2.288c-8.008,0-9.2-8.164-9.2-16.744,0-9.724,1.456-17.628,9.464-17.628,7.9,0,8.84,7.852,8.84,17C50.492-9.672,49.3-1.664,41.392-1.664ZM108.212,0V-37.648h-4.056L91.052-1.924H91L78.052-37.648H73.84V0h2.392V-35.152h.1L89.232,0h3.432l13-35.1h.1V0Zm25.9.624c10.972,0,16.9-8.06,16.9-20.332,0-10.452-5.356-18.616-16.172-18.616-10.972,0-17.16,8.164-17.16,19.4C117.676-7.644,123.032.624,134.108.624Zm.208-2.132c-8.216,0-13.988-6.344-13.988-17.368,0-11.076,6.24-17.316,14.4-17.316,8.112,0,13.676,6.188,13.676,17C148.408-7.54,142.48-1.508,134.316-1.508ZM194.844,0V-37.648h-4.056l-13.1,35.724h-.052L164.684-37.648h-4.212V0h2.392V-35.152h.1L175.864,0H179.3l13-35.1h.1V0Zm14.144-2.184v-15.86h17V-20.28h-17V-35.464h18.2v-2.184h-20.7V0H227.6V-2.184ZM259.844,0h3.38V-37.648h-2.392V-2.756l-20.7-34.892h-4V0h2.444V-35.516Zm21.788,0h2.5V-35.464h11.544v-2.184H270.088v2.184h11.544Zm33.02.624c10.972,0,16.9-8.06,16.9-20.332,0-10.452-5.356-18.616-16.172-18.616-10.972,0-17.16,8.164-17.16,19.4C298.22-7.644,303.576.624,314.652.624Zm.208-2.132c-8.216,0-13.988-6.344-13.988-17.368,0-11.076,6.24-17.316,14.4-17.316,8.112,0,13.676,6.188,13.676,17C328.952-7.54,323.024-1.508,314.86-1.508ZM351.1-36.088c7.02,0,8.372,4.628,9.152,8.372l2.392-.26c-.936-7.332-5.2-10.348-11.7-10.348-7.176,0-11.908,3.848-11.908,9.776,0,6.968,5.148,8.892,10.556,10.3,5.2,1.352,10.4,2.7,10.4,8.84,0,6.24-5.2,7.7-9.724,7.7-7.332,0-9.62-4.212-10.452-8.372l-2.548.52C338.312-3.744,341.64.624,350.324.624c6.6,0,12.48-2.86,12.48-10.3,0-7.8-6.708-9.308-12.48-10.92-4.992-1.4-8.58-2.912-8.58-8.06C341.744-32.708,344.032-36.088,351.1-36.088Zm34.944,33.9v-15.86h17V-20.28h-17V-35.464h18.2v-2.184h-20.7V0h21.112V-2.184ZM436.9,0h3.38V-37.648h-2.392V-2.756L417.2-37.648h-4V0h2.444V-35.516Zm30-2.132V-37.648h-2.5V0h20.02V-2.132Zm38.74-35.516h-3.64L489.112,0h2.6l4.368-12.9h15.34L515.788,0H518.6Zm-1.924,1.612,6.968,20.956H496.808ZM547.4,0h3.588l12.272-37.648h-2.6L549.224-2.132h-.052l-11.96-35.516h-2.756Zm25.74,0V-37.648h-2.5V0Zm11.648,0h9.516c13.468,0,19.552-7.852,19.552-19.4,0-11.232-5.616-18.252-18.668-18.252h-10.4Zm9.932-2.132h-7.436V-35.516h7.7c9.932,0,16.224,3.744,16.224,16.38C611.208-8.06,605.28-2.132,594.724-2.132Zm39.52-35.516H630.6L617.708,0h2.6l4.368-12.9h15.34L644.384,0h2.808Zm-1.924,1.612,6.968,20.956H625.4ZM667.316,0h9.516c13.468,0,19.552-7.852,19.552-19.4,0-11.232-5.616-18.252-18.668-18.252h-10.4Zm9.932-2.132h-7.436V-35.516h7.7c9.932,0,16.224,3.744,16.224,16.38C693.732-8.06,687.8-2.132,677.248-2.132Zm31.1-.052v-15.86h17V-20.28h-17V-35.464h18.2v-2.184h-20.7V0H726.96V-2.184Z" transform="translate(64 370)" fill="#aed6d5"/>
  </g>
</svg>
