<svg xmlns="http://www.w3.org/2000/svg" width="1048" height="299.323" viewBox="0 0 1048 299.323">
  <g id="Grupo_44861" data-name="Grupo 44861" transform="translate(-56 -375.677)">
    <path id="Trazado_2630" data-name="Trazado 2630" d="M12.964-192.262H59.813L87.767-28.188h.39L116.3-192.262h45.68v8.827H142.6V31h19.383V39.83H100.526V31h19.967V-187.416h-.39L81.241,39.83h-4.48L37.9-187.416h-.39V31H57.476V39.83H12.964V31H32.541V-183.435H12.964ZM255.879-32.515H214.387L201.043,31H225.2V39.83H177.862V31h18.019l47.628-228.63h3.019L292.209,31h17.532V39.83H247.5V31h21.136Zm-39.642-8.827h37.888l-18.409-92.941h-.39ZM342.857,31V-183.435H322.5v-8.827h61.654q20.454,0,35.015,10.3t24.3,40.326q9.74,30.028,9.74,65.162,0,37.211-10.714,66.46T417.806,29.532q-13.977,10.3-34.041,10.3H322.5V31Zm23.181-214.438V31h16.948q13.344,0,21.769-4.327T418.682,7.812q5.5-14.538,7.451-36.865t1.948-58.326q0-43.268-6.185-64.557t-15.146-26.394q-8.961-5.106-23.376-5.106ZM535.708,45.2q-25.324,0-43-37.73a187.743,187.743,0,0,1-17.678-80.652q0-51.576,18.555-88.008t43.1-36.432q23.084,0,41.395,37.038t18.311,84.114q0,48.461-18.36,85.066T535.708,45.2Zm.39-234q-10.714,0-19.236,8.74t-11.591,30.374q-3.068,21.634-3.068,75.46,0,37.211,1.753,59.364t8.912,36.692q7.159,14.538,22.451,14.538,9.35,0,18.749-8.827t12.272-34.7q2.873-25.875,2.873-79.527,0-48.634-3.555-67.153t-11.4-26.74Q546.422-188.8,536.1-188.8Zm194.312,5.365V45.2h-3.993l-86-229.669h-.39V31h22.11V39.83h-46.46V31h19.383V-183.435H614.31v-8.827h49.869L725.053-29.572h.39V-183.435H703.82v-8.827h46.362v8.827Zm151.554,0V45.2h-3.994l-86-229.669h-.39V31h22.11V39.83h-46.46V31H786.61V-183.435H765.864v-8.827h49.869L876.607-29.572H877V-183.435H855.374v-8.827h46.362v8.827ZM993-32.515H951.508L938.164,31h24.155V39.83H914.983V31H933l47.629-228.63h3.019L1029.33,31h17.532V39.83H984.624V31h21.136Zm-39.642-8.827h37.888l-18.409-92.941h-.39Z" transform="translate(50.089 573.304)" fill="#caad68"/>
    <text id="_40_años_de_carrera:_provocación_sexo_y_hits_a_prueba_de_balas" data-name="40 años de carrera: provocación, sexo y hits a prueba de balas" transform="translate(56 664)" fill="#aed6d5" font-size="31" font-family="AdelleSans-Thin, Adelle Sans" font-weight="200"><tspan x="0" y="0">40 AÑOS DE CARRERA: PROVOCACIÓN, SEXO Y HITS A PRUEBA DE BALAS</tspan></text>
  </g>
</svg>
