<?xml version="1.0" encoding="utf-8"?>
<!-- Generator: Adobe Illustrator 27.3.1, SVG Export Plug-In . SVG Version: 6.00 Build 0)  -->
<svg version="1.1" id="Layer_1" xmlns="http://www.w3.org/2000/svg" xmlns:xlink="http://www.w3.org/1999/xlink" x="0px" y="0px"
	 viewBox="0 0 1048 299.3" style="enable-background:new 0 0 1048 299.3;" xml:space="preserve">
<style type="text/css">
	.st0{fill:#CAAD68;}
	.st1{enable-background:new    ;}
	.st2{fill:#AED6D5;}
</style>
<g id="Grupo_44861" transform="translate(-56 -375.677)">
	<path id="Trazado_2630" class="st0" d="M63.1,381h46.8l28,164.1h0.4L166.4,381h45.7v8.8h-19.4v214.4h19.4v8.8h-61.5v-8.8h20V385.9
		h-0.4l-38.9,227.2h-4.5L88,385.9h-0.4v218.4h20v8.8H63.1v-8.8h19.6V389.9H63.1V381z M306,540.8h-41.5l-13.3,63.5h24.2v8.8H228v-8.8
		h18l47.6-228.6h3l45.7,228.6h17.5v8.8h-62.2v-8.8h21.1L306,540.8z M266.3,532h37.9L285.8,439h-0.4L266.3,532z M392.9,604.3V389.9
		h-20.4V381h61.7c13.6,0,25.3,3.4,35,10.3s17.8,20.3,24.3,40.3c6.5,20,9.7,41.7,9.7,65.2c0,24.8-3.6,47-10.7,66.5
		s-15.4,32.7-24.7,39.5c-9.3,6.9-20.7,10.3-34,10.3h-61.3v-8.8H392.9z M416.1,389.9v214.4h16.9c8.9,0,16.2-1.4,21.8-4.3
		c5.6-2.9,10.3-9.2,13.9-18.9c3.7-9.7,6.2-22,7.5-36.9c1.3-14.9,2-34.3,1.9-58.3c0-28.8-2.1-50.4-6.2-64.6
		c-4.1-14.2-9.2-23-15.1-26.4c-6-3.4-13.8-5.1-23.4-5.1L416.1,389.9z M585.8,618.5c-16.9,0-31.2-12.6-43-37.7
		C531,555.5,525,528,525.1,500.1c0-34.4,6.2-63.7,18.6-88c12.4-24.3,26.7-36.4,43.1-36.4c15.4,0,29.2,12.3,41.4,37
		c12.2,24.7,18.3,52.7,18.3,84.1c0,32.3-6.1,60.7-18.4,85.1C615.9,606.3,601.8,618.5,585.8,618.5z M586.2,384.5
		c-7.1,0-13.6,2.9-19.2,8.7c-5.7,5.8-9.5,16-11.6,30.4c-2,14.4-3.1,39.6-3.1,75.5c0,24.8,0.6,44.6,1.8,59.4
		c1.2,14.8,4.1,27,8.9,36.7c4.8,9.7,12.3,14.5,22.5,14.5c6.2,0,12.5-2.9,18.7-8.8c6.3-5.9,10.4-17.5,12.3-34.7
		c1.9-17.2,2.9-43.8,2.9-79.5c0-32.4-1.2-54.8-3.6-67.2s-6.2-21.3-11.4-26.7C599.1,387.2,593.1,384.5,586.2,384.5L586.2,384.5z
		 M780.5,389.9v228.6h-4l-86-229.7h-0.4v215.5h22.1v8.8h-46.5v-8.8h19.4V389.9h-20.8V381h49.9l60.9,162.7h0.4V389.9h-21.6V381h46.4
		v8.8H780.5z M932.1,389.9v228.6h-4l-86-229.7h-0.4v215.5h22.1v8.8h-46.5v-8.8h19.4V389.9H816V381h49.9l60.9,162.7h0.4V389.9h-21.6
		V381h46.4v8.8H932.1z M1043.1,540.8h-41.5l-13.3,63.5h24.2v8.8h-47.3v-8.8h18l47.6-228.6h3l45.7,228.6h17.5v8.8h-62.2v-8.8h21.1
		L1043.1,540.8z M1003.4,532h37.9l-18.4-92.9h-0.4L1003.4,532z"/>
	<g class="st1">
		<path class="st2" d="M67.5,658H56.9v-0.7l10.3-15.8h1.1v15.7h2.8v0.7h-2.8v6h-0.8V658z M67.5,642.4L58,657.2h9.6V642.4z"/>
		<path class="st2" d="M74.7,653c0-5.7,0.9-11.8,7-11.8c6,0,6.5,6.1,6.5,11.3c0,6-0.8,11.9-6.8,11.9C75.3,664.4,74.7,658.5,74.7,653
			z M87.4,652.7c0-5.5-0.5-10.8-5.7-10.8c-5.3,0-6.1,5.4-6.1,11.2c0,5.1,0.7,10.5,5.9,10.5C86.6,663.6,87.4,658.3,87.4,652.7z"/>
		<path class="st2" d="M116.3,664h-1l-2.8-8.2h-9.4l-2.8,8.2h-0.9l7.8-22.4h1.2L116.3,664z M103.4,655.1h8.8l-4.4-12.9L103.4,655.1z
			"/>
		<path class="st2" d="M121.9,642.5V664h-0.8v-22.4h1.2l13.6,21.5v-21.5h0.8V664h-1.2L121.9,642.5z M132,638.9
			c1.1,0,1.3-0.9,1.2-2.2l0.7,0.1c0.3,2.1-0.7,2.9-2,2.9c-1.6,0-3.9-1.7-5.3-1.7c-1.2,0-1.3,1.1-1.2,2.2l-0.7-0.1
			c-0.3-2,0.7-2.9,2-2.9C128.4,637.2,130.5,638.9,132,638.9z"/>
		<path class="st2" d="M142.9,652.7c0-6.7,3.7-11.5,10.1-11.5c6.3,0,9.5,4.8,9.5,11.1c0,7.3-3.6,12.2-10,12.2
			C146.1,664.4,142.9,659.4,142.9,652.7z M161.7,652.2c0-6.4-3.5-10.3-8.7-10.3c-5.1,0-9.1,3.7-9.1,10.8c0,6.8,3.5,10.9,8.8,10.9
			C157.8,663.6,161.7,659.8,161.7,652.2z"/>
		<path class="st2" d="M168.2,646.9c0,3.1,2.1,4.2,5.2,5c3.6,1,7.5,1.8,7.5,6.6c0,4.3-3.3,5.9-7.1,5.9c-5.3,0-6.8-3-7.5-5.9l0.8-0.2
			c0.6,2.5,2,5.3,6.7,5.3c2.9,0,6.3-1.1,6.3-5.1c0-4.1-3.4-4.9-6.8-5.8c-3.2-0.8-5.9-2.1-5.9-5.9c0-3.5,2.5-5.7,6.8-5.7
			c4,0,6.1,2,6.8,6.1l-0.7,0.1c-0.5-2.3-1.5-5.4-5.9-5.4C169.8,641.9,168.2,644.2,168.2,646.9z"/>
		<path class="st2" d="M194.4,641.6h5.8c7.8,0,11.1,4.1,11.1,10.9c0,7-3.7,11.6-11.2,11.6h-5.7V641.6z M210.5,652.5
			c0-7.6-4.2-10.2-10.4-10.2h-4.9v21h4.9C206.6,663.3,210.5,659.5,210.5,652.5z"/>
		<path class="st2" d="M229.7,663.3v0.7h-12.1v-22.4h11.9v0.7h-11.1v9.9h10.4v0.7h-10.4v10.4H229.7z"/>
		<path class="st2" d="M241.8,653.3c0-8.1,4.3-12.1,10-12.1c4.4,0,7.3,2.3,7.8,6.9l-0.8,0c-0.7-3.9-2.7-6.2-7.1-6.2
			c-5.4,0-9.1,3.9-9.1,11.1c0,7.4,3.5,10.6,8.7,10.6c4,0,6.3-1.5,7.4-5.4l0.7,0.2c-1,4.4-4.1,6-8.2,6
			C244.5,664.4,241.8,659.7,241.8,653.3z"/>
		<path class="st2" d="M279.8,664h-1l-2.8-8.2h-9.4l-2.8,8.2H263l7.8-22.4h1.2L279.8,664z M267,655.1h8.8l-4.4-12.9L267,655.1z"/>
		<path class="st2" d="M298.4,664l-5.8-10.3h-7.2V664h-0.8v-22.4h6.5c5.6,0,7.1,2.4,7.1,5.7c0,3.7-1.9,5.7-4.8,6.4l6,10.4H298.4z
			 M297.4,647.3c0-4.2-2.8-5-6.8-5h-5.2V653h5.8C294.9,653,297.4,651.5,297.4,647.3z"/>
		<path class="st2" d="M318.3,664l-5.8-10.3h-7.2V664h-0.8v-22.4h6.5c5.6,0,7.1,2.4,7.1,5.7c0,3.7-1.9,5.7-4.8,6.4l6,10.4H318.3z
			 M317.3,647.3c0-4.2-2.8-5-6.8-5h-5.2V653h5.8C314.9,653,317.3,651.5,317.3,647.3z"/>
		<path class="st2" d="M336.6,663.3v0.7h-12.1v-22.4h11.9v0.7h-11.1v9.9h10.4v0.7h-10.4v10.4H336.6z"/>
		<path class="st2" d="M355.8,664l-5.8-10.3h-7.2V664h-0.8v-22.4h6.5c5.6,0,7.1,2.4,7.1,5.7c0,3.7-1.9,5.7-4.8,6.4l6,10.4H355.8z
			 M354.8,647.3c0-4.2-2.8-5-6.8-5h-5.2V653h5.8C352.4,653,354.8,651.5,354.8,647.3z"/>
		<path class="st2" d="M376.2,664h-1l-2.8-8.2H363l-2.8,8.2h-0.9l7.8-22.4h1.2L376.2,664z M363.3,655.1h8.8l-4.4-12.9L363.3,655.1z"
			/>
		<path class="st2" d="M380.4,651.4c-0.7,0-1.1-0.4-1.1-1.2c0-0.8,0.5-1.1,1.1-1.1c0.7,0,1.1,0.4,1.1,1.1
			C381.5,651,381.1,651.4,380.4,651.4z M380.4,664.4c-0.7,0-1.1-0.4-1.1-1.2c0-0.8,0.5-1.1,1.1-1.1c0.7,0,1.1,0.4,1.1,1.1
			C381.5,664,381.1,664.4,380.4,664.4z"/>
		<path class="st2" d="M396,664v-22.4h6c5.7,0,7.4,2.7,7.4,6.4c0,5.2-3.2,6.8-8,6.8h-4.7v9.2H396z M408.7,647.8c0-3.6-2-5.5-6.9-5.5
			h-4.9V654h4.4C405.3,654,408.7,653.2,408.7,647.8z"/>
		<path class="st2" d="M428.7,664l-5.8-10.3h-7.2V664h-0.8v-22.4h6.5c5.6,0,7.1,2.4,7.1,5.7c0,3.7-1.9,5.7-4.8,6.4l6,10.4H428.7z
			 M427.7,647.3c0-4.2-2.8-5-6.8-5h-5.2V653h5.8C425.3,653,427.7,651.5,427.7,647.3z"/>
		<path class="st2" d="M433.3,652.7c0-6.7,3.7-11.5,10.1-11.5c6.3,0,9.5,4.8,9.5,11.1c0,7.3-3.6,12.2-10,12.2
			C436.6,664.4,433.3,659.4,433.3,652.7z M452.1,652.2c0-6.4-3.5-10.3-8.7-10.3c-5.1,0-9.1,3.7-9.1,10.8c0,6.8,3.5,10.9,8.8,10.9
			C448.2,663.6,452.1,659.8,452.1,652.2z"/>
		<path class="st2" d="M456.2,641.6h0.9l7.5,21.5l7.2-21.5h0.9l-7.5,22.4h-1L456.2,641.6z"/>
		<path class="st2" d="M476,652.7c0-6.7,3.7-11.5,10.1-11.5c6.3,0,9.5,4.8,9.5,11.1c0,7.3-3.6,12.2-10,12.2
			C479.2,664.4,476,659.4,476,652.7z M494.7,652.2c0-6.4-3.5-10.3-8.7-10.3c-5.1,0-9.1,3.7-9.1,10.8c0,6.8,3.5,10.9,8.8,10.9
			C490.9,663.6,494.7,659.8,494.7,652.2z"/>
		<path class="st2" d="M500.5,653.3c0-8.1,4.3-12.1,10-12.1c4.4,0,7.3,2.3,7.8,6.9l-0.8,0c-0.7-3.9-2.7-6.2-7.1-6.2
			c-5.4,0-9.1,3.9-9.1,11.1c0,7.4,3.5,10.6,8.7,10.6c4,0,6.3-1.5,7.4-5.4l0.7,0.2c-1,4.4-4.1,6-8.2,6
			C503.2,664.4,500.5,659.7,500.5,653.3z"/>
		<path class="st2" d="M538.5,664h-1l-2.8-8.2h-9.4l-2.8,8.2h-0.9l7.8-22.4h1.2L538.5,664z M525.6,655.1h8.8l-4.4-12.9L525.6,655.1z
			"/>
		<path class="st2" d="M541.2,653.3c0-8.1,4.3-12.1,10-12.1c4.4,0,7.3,2.3,7.8,6.9l-0.8,0c-0.7-3.9-2.7-6.2-7.1-6.2
			c-5.4,0-9.1,3.9-9.1,11.1c0,7.4,3.5,10.6,8.7,10.6c4,0,6.3-1.5,7.4-5.4l0.7,0.2c-1,4.4-4.1,6-8.2,6
			C543.9,664.4,541.2,659.7,541.2,653.3z"/>
		<path class="st2" d="M565.1,664v-22.4h0.8V664H565.1z"/>
		<path class="st2" d="M572.1,652.7c0-6.7,3.7-11.5,10.1-11.5c6.3,0,9.5,4.8,9.5,11.1c0,7.3-3.6,12.2-10,12.2
			C575.3,664.4,572.1,659.4,572.1,652.7z M590.8,652.2c0-6.4-3.5-10.3-8.7-10.3c-5.1,0-9.1,3.7-9.1,10.8c0,6.8,3.5,10.9,8.8,10.9
			C587,663.6,590.8,659.8,590.8,652.2z M584.9,635.8l-4,4.3l-0.7-0.2l3.3-4.1H584.9z"/>
		<path class="st2" d="M598.7,642.5V664h-0.8v-22.4h1.2l13.6,21.5v-21.5h0.8V664h-1.2L598.7,642.5z"/>
		<path class="st2" d="M621.3,661.8l-2.1,5.9l-0.7-0.2l1.5-5.7H621.3z"/>
		<path class="st2" d="M635.2,646.9c0,3.1,2.1,4.2,5.2,5c3.6,1,7.5,1.8,7.5,6.6c0,4.3-3.3,5.9-7.1,5.9c-5.3,0-6.8-3-7.5-5.9l0.8-0.2
			c0.6,2.5,2,5.3,6.7,5.3c2.9,0,6.3-1.1,6.3-5.1c0-4.1-3.4-4.9-6.8-5.8c-3.2-0.8-5.9-2.1-5.9-5.9c0-3.5,2.5-5.7,6.8-5.7
			c4,0,6.1,2,6.8,6.1l-0.7,0.1c-0.5-2.3-1.5-5.4-5.9-5.4C636.9,641.9,635.2,644.2,635.2,646.9z"/>
		<path class="st2" d="M665.7,663.3v0.7h-12.1v-22.4h11.9v0.7h-11.1v9.9h10.4v0.7h-10.4v10.4H665.7z"/>
		<path class="st2" d="M685.1,664h-1l-7.7-10.9l-7.1,10.9h-1l7.7-11.6l-7.3-10.9h0.9l6.9,10.2l6.6-10.2h1l-7,10.9L685.1,664z"/>
		<path class="st2" d="M687.9,652.7c0-6.7,3.7-11.5,10.1-11.5c6.3,0,9.5,4.8,9.5,11.1c0,7.3-3.6,12.2-10,12.2
			C691.1,664.4,687.9,659.4,687.9,652.7z M706.7,652.2c0-6.4-3.5-10.3-8.7-10.3c-5.1,0-9.1,3.7-9.1,10.8c0,6.8,3.5,10.9,8.8,10.9
			C702.8,663.6,706.7,659.8,706.7,652.2z"/>
		<path class="st2" d="M725.7,664v-9l-7.6-13.5h0.9l7.1,12.4h0l6.8-12.4h0.9l-7.3,13.5v9H725.7z"/>
		<path class="st2" d="M759.9,664v-11.2h-13.4V664h-0.8v-22.4h0.8v10.5h13.4v-10.5h0.8V664H759.9z"/>
		<path class="st2" d="M768.2,664v-22.4h0.8V664H768.2z"/>
		<path class="st2" d="M780.3,642.3h-6.9v-0.7h14.7v0.7h-6.9V664h-0.8V642.3z"/>
		<path class="st2" d="M791.4,646.9c0,3.1,2.1,4.2,5.2,5c3.6,1,7.5,1.8,7.5,6.6c0,4.3-3.3,5.9-7.1,5.9c-5.3,0-6.8-3-7.5-5.9l0.8-0.2
			c0.6,2.5,2,5.3,6.7,5.3c2.9,0,6.3-1.1,6.3-5.1c0-4.1-3.4-4.9-6.8-5.8c-3.2-0.8-5.9-2.1-5.9-5.9c0-3.5,2.5-5.7,6.8-5.7
			c4,0,6.1,2,6.8,6.1l-0.7,0.1c-0.5-2.3-1.5-5.4-5.9-5.4C793,641.9,791.4,644.2,791.4,646.9z"/>
		<path class="st2" d="M831.8,664h-1l-2.8-8.2h-9.4l-2.8,8.2H815l7.8-22.4h1.2L831.8,664z M819,655.1h8.8l-4.4-12.9L819,655.1z"/>
		<path class="st2" d="M844.5,664v-22.4h6c5.7,0,7.4,2.7,7.4,6.4c0,5.2-3.2,6.8-8,6.8h-4.7v9.2H844.5z M857.2,647.8
			c0-3.6-2-5.5-6.9-5.5h-4.9V654h4.4C853.8,654,857.2,653.2,857.2,647.8z"/>
		<path class="st2" d="M877.2,664l-5.8-10.3h-7.2V664h-0.8v-22.4h6.5c5.6,0,7.1,2.4,7.1,5.7c0,3.7-1.9,5.7-4.8,6.4l6,10.4H877.2z
			 M876.2,647.3c0-4.2-2.8-5-6.8-5h-5.2V653h5.8C873.8,653,876.2,651.5,876.2,647.3z"/>
		<path class="st2" d="M897.6,657.2v-15.7h0.8v15.6c0,4.7-2.5,7.2-7.6,7.2c-5.3,0-7.4-2.7-7.4-7.2v-15.7h0.8v15.6
			c0,4.9,2.8,6.4,6.6,6.4C894.7,663.6,897.6,662,897.6,657.2z"/>
		<path class="st2" d="M917.8,663.3v0.7h-12.1v-22.4h11.9v0.7h-11.1v9.9h10.4v0.7h-10.4v10.4H917.8z"/>
		<path class="st2" d="M923.3,641.6h6.7c5.2,0,6.5,2.3,6.5,5.3c0,3.3-2.1,5.1-4.8,5.5c3.8,0.3,5.5,2.7,5.5,5.8c0,4.6-3,5.9-7.9,5.9
			h-6.1V641.6z M935.6,646.8c0-3.1-1.6-4.5-5.7-4.5h-5.9v9.8h4.8C931.5,652.1,935.6,651.1,935.6,646.8z M936.4,658.2
			c0-3.6-2.7-5.3-6.3-5.3h-6.1v10.4h5.2C933.1,663.3,936.4,662.4,936.4,658.2z"/>
		<path class="st2" d="M957.1,664h-1l-2.8-8.2h-9.4l-2.8,8.2h-0.9l7.8-22.4h1.2L957.1,664z M944.2,655.1h8.8l-4.4-12.9L944.2,655.1z
			"/>
		<path class="st2" d="M969.8,641.6h5.8c7.8,0,11.1,4.1,11.1,10.9c0,7-3.7,11.6-11.2,11.6h-5.7V641.6z M985.8,652.5
			c0-7.6-4.2-10.2-10.4-10.2h-4.9v21h4.9C982,663.3,985.8,659.5,985.8,652.5z"/>
		<path class="st2" d="M1005.1,663.3v0.7h-12.1v-22.4h11.9v0.7h-11.1v9.9h10.4v0.7h-10.4v10.4H1005.1z"/>
		<path class="st2" d="M1018.4,641.6h6.7c5.2,0,6.5,2.3,6.5,5.3c0,3.3-2.1,5.1-4.8,5.5c3.8,0.3,5.5,2.7,5.5,5.8c0,4.6-3,5.9-7.9,5.9
			h-6.1V641.6z M1030.8,646.8c0-3.1-1.6-4.5-5.7-4.5h-5.9v9.8h4.8C1026.7,652.1,1030.8,651.1,1030.8,646.8z M1031.6,658.2
			c0-3.6-2.7-5.3-6.3-5.3h-6.1v10.4h5.2C1028.3,663.3,1031.6,662.4,1031.6,658.2z"/>
		<path class="st2" d="M1052.2,664h-1l-2.8-8.2h-9.4l-2.8,8.2h-0.9l7.8-22.4h1.2L1052.2,664z M1039.4,655.1h8.8l-4.4-12.9
			L1039.4,655.1z"/>
		<path class="st2" d="M1068.4,663.3v0.7H1057v-22.4h0.8v21.7H1068.4z"/>
		<path class="st2" d="M1088,664h-1l-2.8-8.2h-9.4l-2.8,8.2h-0.9l7.8-22.4h1.2L1088,664z M1075.2,655.1h8.8l-4.4-12.9L1075.2,655.1z
			"/>
		<path class="st2" d="M1092.3,646.9c0,3.1,2.1,4.2,5.2,5c3.6,1,7.5,1.8,7.5,6.6c0,4.3-3.3,5.9-7.1,5.9c-5.3,0-6.8-3-7.5-5.9
			l0.8-0.2c0.6,2.5,2,5.3,6.7,5.3c2.9,0,6.3-1.1,6.3-5.1c0-4.1-3.4-4.9-6.8-5.8c-3.2-0.8-5.9-2.1-5.9-5.9c0-3.5,2.5-5.7,6.8-5.7
			c4,0,6.1,2,6.8,6.1l-0.7,0.1c-0.5-2.3-1.5-5.4-5.9-5.4C1094,641.9,1092.3,644.2,1092.3,646.9z"/>
	</g>
</g>
</svg>
